<svg width="0" height="0" style="position:absolute"><symbol viewBox="0 0 24 24" id="file" xmlns="http://www.w3.org/2000/svg"><path d="M21 8v12.993A1 1 0 0 1 20.007 22H3.993A.993.993 0 0 1 3 21.008V2.992C3 2.455 3.449 2 4.002 2h10.995L21 8Zm-2 1h-5V4H5v16h14V9ZM8 7h3v2H8V7Zm0 4h8v2H8v-2Zm0 4h8v2H8v-2Z"/></symbol><symbol viewBox="0 0 24 24" id="file-fill" xmlns="http://www.w3.org/2000/svg"><path d="M21 9v11.992A1 1 0 0 1 20.007 22H3.993A.993.993 0 0 1 3 21.008V2.992C3 2.455 3.447 2 3.998 2H14v6a1 1 0 0 0 1 1h6Zm0-2h-5V2.003L21 7ZM8 7v2h3V7H8Zm0 4v2h8v-2H8Zm0 4v2h8v-2H8Z"/></symbol><symbol viewBox="0 0 24 24" id="folder" xmlns="http://www.w3.org/2000/svg"><path d="M12.414 5H21a1 1 0 0 1 1 1v14a1 1 0 0 1-1 1H3a1 1 0 0 1-1-1V4a1 1 0 0 1 1-1h7.414l2 2ZM20 11H4v8h16v-8Zm0-2V7h-8.414l-2-2H4v4h16Z"/></symbol><symbol viewBox="0 0 24 24" id="folder-fill" xmlns="http://www.w3.org/2000/svg"><path d="M22 11v9a1 1 0 0 1-1 1H3a1 1 0 0 1-1-1v-9h20Zm0-2H2V4a1 1 0 0 1 1-1h7.414l2 2H21a1 1 0 0 1 1 1v3Z"/></symbol><symbol viewBox="0 0 24 24" id="folder-fill-open" xmlns="http://www.w3.org/2000/svg"><path d="M3 21a1 1 0 0 1-1-1V4a1 1 0 0 1 1-1h7.414l2 2H20a1 1 0 0 1 1 1v3H4v9.996L6 11h16.5l-2.31 9.242a1 1 0 0 1-.97.758H3Z"/></symbol><symbol viewBox="0 0 24 24" id="folder-open" xmlns="http://www.w3.org/2000/svg"><path d="M3 21a1 1 0 0 1-1-1V4a1 1 0 0 1 1-1h7.414l2 2H20a1 1 0 0 1 1 1v3h-2V7h-7.414l-2-2H4v11.998L5.5 11h17l-2.31 9.242a1 1 0 0 1-.97.758H3Zm16.938-8H7.062l-1.5 6h12.876l1.5-6Z"/></symbol></svg>